<svg width="2032" height="531" viewBox="0 0 2032 531" fill="none" xmlns="http://www.w3.org/2000/svg">
<path d="M256.808 73.6511C257.978 73.7175 259.148 73.7828 260.318 73.8469C292.103 76.4389 322.912 87.0591 348.832 105.822C349.456 106.271 349.456 106.271 350.092 106.73C356.591 111.456 362.495 116.72 368.284 122.282C368.734 122.707 369.183 123.132 369.647 123.57C377.01 130.554 383.347 137.959 389.233 146.223C389.567 146.689 389.901 147.156 390.246 147.636C416.421 184.508 426.616 231.18 419.527 275.734C416.433 293.942 410.938 312.104 402.179 328.419C401.539 329.633 400.932 330.866 400.363 332.115C397.859 337.088 395.373 338.886 390.142 340.653C388.869 341.037 388.869 341.037 387.57 341.429C386.688 341.717 385.807 342.005 384.898 342.302C382.096 343.212 379.282 344.082 376.467 344.953C374.571 345.562 372.678 346.18 370.784 346.797C367.319 347.912 363.854 349.026 360.376 350.102C359.68 350.318 358.984 350.535 358.267 350.758C355.562 351.396 353.463 351.711 350.988 350.343C350.467 349.935 349.945 349.527 349.408 349.106C348.813 348.649 348.218 348.192 347.606 347.721C346.976 347.224 346.347 346.727 345.699 346.216C344.366 345.19 343.032 344.165 341.698 343.141C341.022 342.619 340.346 342.097 339.649 341.559C336.481 339.132 333.264 336.775 330.034 334.432C329.178 333.803 329.178 333.803 328.304 333.16C327.777 332.779 327.251 332.397 326.709 332.004C326.247 331.668 325.786 331.331 325.311 330.985C324.158 330.14 324.158 330.14 322.646 330.27C321.394 332.149 320.234 334.03 319.092 335.975C318.359 337.202 317.625 338.427 316.889 339.652C316.494 340.309 316.1 340.966 315.693 341.643C312.973 346.106 310.135 350.494 307.316 354.894C306.887 355.564 306.459 356.234 306.017 356.924C305.635 357.52 305.252 358.116 304.858 358.73C303.923 360.176 303.923 360.176 303.194 361.693C299.443 361.231 295.89 360.464 292.255 359.42C291.438 359.19 291.438 359.19 290.604 358.956C288.813 358.45 287.022 357.94 285.232 357.429C283.969 357.072 282.706 356.715 281.443 356.358C278.115 355.417 274.788 354.471 271.461 353.525C268.131 352.579 264.8 351.637 261.469 350.694C248.937 347.147 236.409 343.585 223.889 339.997C222.436 344.219 220.987 348.444 219.54 352.669C219.315 353.327 219.089 353.985 218.857 354.663C215.891 363.319 212.968 371.989 210.094 380.676C209.609 382.145 209.122 383.614 208.636 385.083C207.193 389.44 205.751 393.798 204.32 398.16C203.579 400.414 202.833 402.667 202.087 404.92C201.817 405.748 201.547 406.576 201.269 407.429C201.018 408.184 200.767 408.94 200.508 409.719C200.29 410.38 200.073 411.042 199.849 411.724C199.2 413.316 199.2 413.316 197.703 414.813C172.783 406.489 150.09 394.897 130.728 376.876C129.145 375.413 127.531 374.019 125.88 372.635C97.6726 347.918 80.695 309.863 75.0047 273.41C74.916 272.849 74.8273 272.288 74.7359 271.71C71.0465 247.142 73.6222 221.664 80.2419 197.846C80.4462 197.07 80.6505 196.295 80.8611 195.496C81.5002 193.382 82.1273 191.527 83.2345 189.616C85.7712 188.532 85.7712 188.532 88.6587 188.354C92.6937 187.932 95.1553 187.287 97.9639 184.192C98.3835 183.648 98.803 183.104 99.2352 182.544C99.6335 182.162 100.032 181.78 100.442 181.386C102.882 181.667 103.976 182.433 105.501 184.309C106.039 184.958 106.039 184.958 106.587 185.621C106.951 186.075 107.315 186.53 107.69 186.998C108.426 187.894 109.161 188.79 109.897 189.686C110.48 190.404 111.063 191.121 111.665 191.861C112.414 192.778 112.414 192.778 113.918 192.675C114.58 192.663 115.242 192.65 115.924 192.637C116.674 192.624 117.425 192.612 118.198 192.599C119.43 192.572 119.43 192.572 120.686 192.544C121.534 192.529 122.381 192.513 123.253 192.496C125.059 192.462 126.865 192.425 128.671 192.387C131.388 192.329 134.106 192.279 136.823 192.229C141.129 192.147 145.433 192.039 149.737 191.918C151.873 191.865 154.006 191.839 156.142 191.819C162.416 191.704 167.105 191.407 171.705 186.717C172.689 185.822 173.675 184.927 174.662 184.034C175.375 183.362 175.375 183.362 176.102 182.676C178.21 180.736 180.465 179.01 182.74 177.271C185.523 175.103 188.287 172.914 191.028 170.693C191.802 170.066 191.802 170.066 192.592 169.426C193.624 168.582 194.652 167.732 195.674 166.874C197.848 165.06 199.862 163.479 202.341 162.089C204.773 160.684 205.96 159.867 207.429 157.445C208.528 151.794 208.371 145.968 208.177 140.237C208.747 140.337 209.317 140.436 209.905 140.538C211.513 140.814 213.125 141.071 214.739 141.313C217.155 141.734 217.155 141.734 218.988 142.342C220.928 142.899 221.941 143.057 223.889 142.482C225.999 140.414 227.646 138.139 229.296 135.705C230.735 133.582 232.28 131.68 234.007 129.784C234.453 129.282 234.9 128.781 235.36 128.264C236.23 127.295 237.115 126.341 238.018 125.404C241.284 121.657 241.537 118.634 241.314 113.746C241.087 110.945 240.856 108.145 240.617 105.346C239.08 86.659 239.08 86.659 244.323 78.8882C244.691 78.3388 245.058 77.7893 245.437 77.2233C248.751 73.0588 251.759 73.0905 256.808 73.6511Z" fill="black"/>
<path d="M567.295 53.4507C595.441 53.4507 623.587 53.4507 652.586 53.4507C654.756 61.2635 656.921 69.062 658.934 76.9143C659.157 77.7829 659.157 77.7829 659.385 78.6691C659.616 79.5674 659.616 79.5674 659.851 80.4839C660.184 81.7773 660.517 83.0707 660.851 84.3641C661.561 87.1195 662.271 89.875 662.98 92.6307C664.891 100.056 666.807 107.479 668.724 114.902C668.921 115.666 669.118 116.43 669.321 117.218C673.748 134.361 678.218 151.492 682.699 168.621C682.961 169.622 682.961 169.622 683.228 170.643C685.555 179.54 687.885 188.437 690.216 197.334C691.168 200.97 692.12 204.606 693.072 208.242C695.039 215.749 697.005 223.257 698.972 230.765C699.158 230.04 699.345 229.314 699.537 228.567C709.011 191.766 718.526 154.977 728.153 118.216C728.85 115.557 729.546 112.897 730.242 110.238C730.41 109.596 730.578 108.954 730.752 108.293C733.019 99.6338 735.274 90.9713 737.514 82.3046C737.641 81.8108 737.769 81.3171 737.9 80.8084C739.169 75.9028 740.434 70.9966 741.696 66.0893C742.081 64.5982 742.465 63.1072 742.85 61.6162C743.021 60.9495 743.191 60.2829 743.367 59.596C744.525 55.1164 744.525 55.1164 745.358 53.4507C773.503 53.4507 801.649 53.4507 830.648 53.4507C830.648 142.085 830.648 230.72 830.648 322.041C812.378 322.041 794.108 322.041 775.284 322.041C774.914 237.974 774.914 237.974 774.536 152.208C770.493 167.037 766.45 181.866 762.285 197.144C759.82 206.182 757.356 215.219 754.891 224.257C754.742 224.802 754.593 225.347 754.44 225.909C748.368 248.168 742.285 270.423 736.193 292.675C735.983 293.441 735.773 294.206 735.558 294.995C733.089 304.01 730.62 313.026 728.15 322.041C708.892 322.041 689.634 322.041 669.793 322.041C664.902 304.865 660.123 287.663 655.452 270.426C655.317 269.928 655.182 269.429 655.043 268.915C653.212 262.16 651.384 255.404 649.557 248.649C647.445 240.836 645.33 233.023 643.214 225.211C642.313 221.885 641.414 218.559 640.515 215.232C634.889 194.452 629.133 173.71 623.407 152.956C623.16 208.754 622.913 264.552 622.659 322.041C604.389 322.041 586.119 322.041 567.295 322.041C567.295 233.406 567.295 144.771 567.295 53.4507Z" fill="black"/>
<path d="M1278.8 53.4507C1296.08 53.4507 1313.36 53.4507 1331.17 53.4507C1334.87 59.8699 1338.57 66.2891 1342.39 72.9029C1344.38 76.2752 1346.37 79.6436 1348.38 83.0031C1352.77 90.3818 1357.08 97.8003 1361.36 105.246C1364.72 111.078 1368.13 116.873 1371.57 122.656C1375.96 130.035 1380.28 137.453 1384.55 144.899C1387.91 150.731 1391.32 156.526 1394.76 162.308C1399.21 169.789 1403.6 177.303 1407.93 184.854C1411.72 191.459 1415.59 198.013 1419.45 204.579C1419.82 129.771 1419.82 129.771 1420.2 53.4507C1438.47 53.4507 1456.74 53.4507 1475.56 53.4507C1475.56 142.085 1475.56 230.72 1475.56 322.041C1458.53 322.041 1441.49 322.041 1423.94 322.041C1412.65 302.931 1412.65 302.931 1407.9 294.826C1407.36 293.903 1406.82 292.979 1406.28 292.056C1402.51 285.621 1398.75 279.179 1394.99 272.735C1391.56 266.845 1388.11 260.962 1384.66 255.08C1380.36 247.754 1376.08 240.421 1371.8 233.083C1368.1 226.728 1364.38 220.383 1360.65 214.039C1356.61 207.15 1352.58 200.256 1348.57 193.351C1344.05 185.599 1339.47 177.888 1334.91 170.164C1334.66 220.283 1334.42 270.403 1334.16 322.041C1315.89 322.041 1297.62 322.041 1278.8 322.041C1278.8 233.406 1278.8 144.771 1278.8 53.4507Z" fill="black"/>
<path d="M377.262 36.9911C380.424 37.5447 382.907 39.1892 385.585 40.8722C386.107 41.1998 386.629 41.5273 387.166 41.8648C420.171 63.045 447.085 93.5912 466.293 127.519C466.641 128.132 466.989 128.746 467.348 129.378C499.543 186.851 505.722 256.41 488.014 319.433C478.835 350.439 463.631 380.047 443.1 405.087C442.782 405.476 442.464 405.865 442.135 406.266C433.08 417.289 423.395 428.11 412.426 437.258C412.027 437.592 411.628 437.926 411.217 438.271C365.798 476.214 309.169 497.982 249.747 498.046C248.906 498.047 248.906 498.047 248.048 498.049C232.749 498.043 217.43 496.881 202.426 493.782C197.293 492.928 193.483 493.559 188.728 495.553C188.134 495.793 187.54 496.033 186.929 496.28C184.921 497.094 182.919 497.921 180.916 498.747C179.48 499.332 178.043 499.916 176.605 500.499C173.332 501.828 170.062 503.162 166.792 504.497C160.209 507.181 153.614 509.832 147.018 512.483C145.797 512.974 144.575 513.465 143.353 513.956C141.515 514.695 139.676 515.434 137.837 516.174C131.868 518.573 125.899 520.974 119.932 523.379C118.848 523.815 117.764 524.252 116.68 524.688C115.18 525.292 113.68 525.896 112.181 526.501C111.337 526.84 110.493 527.18 109.624 527.53C108.331 528.06 107.04 528.594 105.765 529.167C102.119 530.801 102.119 530.801 100.115 530.544C99.7291 530.374 99.3434 530.205 98.9459 530.03C104.126 520.702 109.341 511.404 114.751 502.207C118.454 495.907 122.01 489.544 125.477 483.111C128.667 477.22 132.04 471.446 135.44 465.673C138.808 459.933 142.013 454.117 145.172 448.259C148.295 442.489 151.614 436.856 155.058 431.272C157.798 431.653 159.948 432.527 162.394 433.796C207.726 457.137 263.487 458.127 311.424 443.243C339.083 434.236 363.752 419.82 385.492 400.598C385.898 400.239 386.304 399.88 386.722 399.511C396.057 391.205 404.191 382.165 411.677 372.168C412.037 371.688 412.397 371.209 412.768 370.716C439.545 334.736 454.918 288.504 452.826 243.484C452.796 242.806 452.765 242.129 452.733 241.431C450.237 192.088 431.145 144.526 396.714 108.815C396.217 108.297 395.72 107.78 395.208 107.246C388.143 99.9312 381.011 93.0907 372.773 87.118C372.321 86.7864 371.87 86.4549 371.405 86.1134C366.494 82.5134 361.538 79.0302 356.313 75.8955C356.763 72.8198 357.781 70.5722 359.3 67.8703C359.763 67.0427 360.225 66.2151 360.701 65.3625C361.202 64.4779 361.704 63.5935 362.205 62.7092C362.714 61.8045 363.222 60.8996 363.73 59.9946C375.891 38.3619 375.891 38.3619 377.262 36.9911Z" fill="black"/>
<path d="M363.795 28.0132C363.352 30.9284 362.473 33.0716 361.025 35.6322C360.604 36.3806 360.183 37.1291 359.749 37.9002C359.294 38.6958 358.84 39.4914 358.371 40.3111C357.907 41.1303 357.444 41.9495 356.966 42.7936C352.364 50.896 347.632 58.922 342.847 66.9176C340.225 66.4726 338.018 65.7847 335.608 64.6702C334.936 64.3656 334.264 64.061 333.572 63.7472C332.852 63.4201 332.132 63.093 331.39 62.7559C281.597 40.6841 225.523 39.9977 174.661 59.242C150.956 68.5643 129.261 82.0343 110.68 99.4655C108.969 101.057 107.228 102.583 105.446 104.092C102.475 106.679 99.9881 109.551 97.4496 112.555C96.4688 113.662 96.4688 113.662 95.4681 114.791C60.4754 154.397 42.212 207.757 45.3121 260.493C48.4901 307.234 66.4375 350.548 97.4496 385.634C97.8042 386.036 98.1589 386.438 98.5243 386.852C109.915 399.674 122.806 410.297 137.167 419.666C140.763 422.056 140.763 422.056 141.591 424.539C140.994 426.055 140.994 426.055 140.016 427.806C139.654 428.461 139.293 429.117 138.92 429.792C138.321 430.849 138.321 430.849 137.71 431.927C137.306 432.653 136.902 433.379 136.485 434.128C135.204 436.423 133.911 438.712 132.613 440.998C132.197 441.733 131.781 442.468 131.352 443.226C129.108 447.182 126.85 451.129 124.579 455.07C123.261 457.359 121.952 459.653 120.643 461.947C109.026 457.732 97.8209 447.383 88.4716 439.502C87.6759 438.846 86.88 438.191 86.084 437.535C76.6798 429.716 67.6474 421.199 60.1029 411.548C58.6833 409.751 57.2011 408.028 55.6886 406.308C18.9029 364.131 0.0502024 305.349 0.00152975 249.89C0.00102493 249.362 0.000520114 248.834 0 248.291C0.0934492 185.753 24.0357 126.444 66.0268 80.3845C67.1804 79.091 68.3339 77.7973 69.487 76.5034C74.0402 71.4531 78.8179 66.8469 83.9827 62.4286C84.6568 61.8374 85.3309 61.2462 86.0255 60.6371C111.297 38.6439 140.635 22.9779 172.266 12.3018C173.226 11.9763 173.226 11.9763 174.205 11.6442C191.481 5.88074 209.53 2.76356 227.63 1.07938C228.179 1.02658 228.728 0.973773 229.294 0.91937C275.76 -3.35521 322.231 7.54535 363.795 28.0132Z" fill="black"/>
<path d="M1146.37 64.6731C1146.97 64.8662 1147.57 65.0594 1148.18 65.2583C1149.89 65.823 1151.59 66.4101 1153.29 67.0111C1153.8 67.1828 1154.3 67.3545 1154.82 67.5313C1156.2 68.0457 1156.2 68.0457 1158.34 69.1621C1159.44 71.6846 1158.9 73.2534 1157.92 75.741C1157.64 76.4506 1157.37 77.1602 1157.09 77.8913C1156.78 78.6542 1156.47 79.4172 1156.16 80.2033C1155.85 80.995 1155.54 81.7868 1155.22 82.6025C1154.23 85.1395 1153.22 87.6718 1152.22 90.2041C1151.55 91.893 1150.89 93.5822 1150.23 95.2718C1147.2 102.987 1147.2 102.987 1145.69 106.746C1145.14 108.152 1144.61 109.567 1144.1 110.989C1143.85 111.669 1143.61 112.349 1143.35 113.049C1143.03 113.961 1143.03 113.961 1142.71 114.891C1141.88 116.296 1141.88 116.296 1140.39 116.891C1138.6 117.075 1137.41 116.784 1135.69 116.241C1135.07 116.051 1134.44 115.861 1133.8 115.666C1132.8 115.353 1132.8 115.353 1131.78 115.034C1113.24 109.532 1094.32 107.174 1074.97 107.038C1073.68 107.022 1073.68 107.022 1072.36 107.006C1058.04 107.085 1044.66 111.653 1034.15 121.533C1023.51 134.742 1019.09 149.864 1016.94 166.423C1016.87 166.955 1016.8 167.488 1016.72 168.036C1013.55 194.89 1014.86 228.384 1031.9 250.638C1032.88 251.763 1033.88 252.872 1034.9 253.958C1035.32 254.422 1035.74 254.886 1036.18 255.364C1039.27 258.392 1042.82 260.399 1046.63 262.375C1047.1 262.621 1047.56 262.868 1048.04 263.122C1056.92 267.493 1066.14 267.803 1075.81 267.705C1076.42 267.702 1077.02 267.699 1077.65 267.696C1099.41 267.56 1120.3 263.881 1141.14 257.699C1143.18 262.173 1145.04 266.682 1146.74 271.294C1146.98 271.926 1147.22 272.558 1147.46 273.208C1148.2 275.208 1148.95 277.208 1149.69 279.208C1150.43 281.193 1151.17 283.177 1151.91 285.161C1152.39 286.443 1152.87 287.725 1153.35 289.008C1155.01 293.471 1156.72 297.914 1158.47 302.344C1159.09 304.085 1159.09 304.085 1159.09 305.581C1114.69 321.099 1061.85 331.651 1017.09 311.286C1009.96 307.667 1003.56 303.289 997.488 298.1C996.567 297.341 996.567 297.341 995.626 296.568C976.448 280.223 967.126 254.354 962.839 230.251C962.729 229.631 962.618 229.012 962.505 228.374C960.308 214.858 959.799 201.322 959.846 187.652C959.848 186.832 959.849 186.012 959.85 185.168C959.885 172.805 960.218 160.678 962.324 148.467C962.449 147.72 962.573 146.972 962.701 146.202C967.424 118.708 978.525 90.2455 1001.68 73.0753C1042.81 44.1391 1101.03 50.0148 1146.37 64.6731Z" fill="black"/>
<path d="M241.097 73.6511C240.111 76.5071 238.889 78.2466 236.888 80.478C232.182 87.1366 234.103 96.3194 234.813 104.019C236.028 118.765 236.028 118.765 231.791 123.778C230.423 125.045 229.036 126.293 227.63 127.519C226.528 128.917 225.451 130.335 224.403 131.774C223.034 133.636 222.193 134.772 220.055 135.664C216.803 135.792 213.815 135.065 210.656 134.346C210.007 134.206 209.359 134.066 208.69 133.922C203.932 132.878 203.932 132.878 202.192 132.008C202.182 132.964 202.182 132.964 202.171 133.94C202.138 136.318 202.092 138.695 202.037 141.072C202.016 142.099 202 143.125 201.989 144.152C201.973 145.633 201.937 147.113 201.9 148.593C201.884 149.482 201.869 150.372 201.852 151.288C201.046 156.057 197.347 158.498 193.682 161.279C192.739 162.008 191.796 162.737 190.853 163.466C190.374 163.833 189.894 164.201 189.4 164.58C187.201 166.272 185.016 167.983 182.834 169.696C182.201 170.192 182.201 170.192 181.556 170.697C177.481 173.901 173.462 177.173 169.453 180.46C168.974 180.851 168.495 181.243 168.002 181.646C167.579 181.994 167.156 182.341 166.72 182.699C163.939 184.881 162.265 185.365 158.78 185.589C157.851 185.65 156.921 185.711 155.963 185.774C151.695 186.016 147.425 186.225 143.154 186.414C140.906 186.516 138.662 186.645 136.417 186.8C116.767 188.138 116.767 188.138 111.979 184.569C109.61 182.277 108.043 179.755 106.428 176.897C105.519 175.8 104.588 174.719 103.622 173.671C102.789 172.676 102.789 172.676 101.939 171.66C101.397 172.228 100.855 172.796 100.296 173.382C99.5658 174.133 98.8351 174.884 98.1042 175.635C97.7493 176.009 97.3944 176.382 97.0287 176.767C94.6536 179.191 92.4547 180.92 89.2198 182.134C87.5887 181.811 87.5887 181.811 86.2272 181.386C98.2604 153.152 116.896 127.327 141.815 109.003C143.085 108.068 144.34 107.117 145.595 106.164C152.354 101.105 159.54 96.9824 167.029 93.1033C167.637 92.7867 168.246 92.4701 168.873 92.1439C190.873 80.842 216.22 73.6511 241.097 73.6511Z" fill="black"/>
<path d="M326.387 342.241C328.908 342.871 329.926 343.203 331.922 344.6C332.405 344.935 332.889 345.27 333.386 345.615C333.885 345.968 334.384 346.32 334.897 346.683C335.602 347.173 335.602 347.173 336.321 347.673C336.813 348.016 337.306 348.36 337.814 348.714C338.359 349.082 338.905 349.449 339.466 349.827C340.964 350.934 342.249 352.039 343.6 353.306C347.941 357.255 347.941 357.255 353.438 358.742C357.757 358.137 361.736 356.482 365.759 354.866C366.967 354.42 368.177 353.979 369.389 353.542C371.717 352.696 374.035 351.827 376.345 350.932C387.233 346.73 387.233 346.73 389.981 346.73C388.936 349.776 387.508 351.889 385.445 354.352C384.844 355.069 384.243 355.787 383.624 356.526C381.32 359.201 378.974 361.834 376.593 364.44C375.204 365.976 373.87 367.543 372.539 369.128C345.433 400.001 302.874 417.684 262.664 421.411C257.958 421.712 253.245 421.728 248.531 421.733C247.975 421.734 247.418 421.735 246.844 421.736C233.022 421.731 219.362 420.445 205.933 417.057C204.873 413.695 205.903 411.206 207.011 407.98C207.316 407.063 207.316 407.063 207.626 406.128C208.299 404.109 208.984 402.093 209.668 400.077C210.138 398.677 210.607 397.275 211.075 395.874C212.31 392.185 213.554 388.499 214.801 384.813C215.818 381.8 216.829 378.785 217.839 375.769C219.924 369.547 222.012 363.327 224.114 357.11C224.405 356.244 224.405 356.244 224.703 355.36C226.047 351.392 226.047 351.392 226.882 349.723C231.821 350.645 236.643 351.777 241.472 353.163C242.138 353.351 242.804 353.54 243.491 353.735C245.668 354.352 247.843 354.973 250.019 355.594C251.542 356.026 253.066 356.459 254.59 356.891C258.583 358.023 262.575 359.159 266.566 360.295C272.967 362.118 279.37 363.936 285.773 365.753C288.005 366.387 290.236 367.023 292.468 367.659C293.835 368.048 295.202 368.436 296.57 368.824C297.188 369.001 297.806 369.178 298.444 369.36C299.304 369.604 299.304 369.604 300.181 369.853C300.923 370.064 300.923 370.064 301.68 370.28C303.415 370.728 305.177 371.068 306.935 371.419C316.564 356.976 316.564 356.976 326.387 342.241Z" fill="black"/>
<path d="M1520.45 280.144C1532.8 280.144 1545.14 280.144 1557.86 280.144C1557.86 293.97 1557.86 307.796 1557.86 322.041C1545.52 322.041 1533.17 322.041 1520.45 322.041C1520.45 308.215 1520.45 294.389 1520.45 280.144Z" fill="black"/>
<path d="M1195 280.144C1207.35 280.144 1219.69 280.144 1232.41 280.144C1232.41 293.97 1232.41 307.796 1232.41 322.041C1220.07 322.041 1207.72 322.041 1195 322.041C1195 308.215 1195 294.389 1195 280.144Z" fill="black"/>
<path d="M876.286 280.144C888.631 280.144 900.975 280.144 913.694 280.144C913.694 293.97 913.694 307.796 913.694 322.041C901.349 322.041 889.005 322.041 876.286 322.041C876.286 308.215 876.286 294.389 876.286 280.144Z" fill="black"/>
<path d="M552.332 378.901C554.307 378.901 556.282 378.901 558.317 378.901C560.057 380.715 560.057 380.715 561.447 383.253C561.703 383.704 561.959 384.155 562.222 384.621C563.046 386.086 563.837 387.566 564.63 389.048C565.19 390.056 565.753 391.064 566.319 392.07C567.42 394.034 568.51 396.004 569.591 397.979C571.267 401.016 573.016 403.997 574.823 406.957C575.566 408.187 575.566 408.187 576.323 409.441C576.8 410.226 577.278 411.011 577.769 411.82C578.046 412.275 578.323 412.73 578.608 413.199C581.231 418.007 581.231 418.007 584.503 422.294C584.788 421.799 585.073 421.304 585.367 420.794C590.704 411.526 596.049 402.264 601.43 393.023C601.854 392.293 602.278 391.563 602.715 390.812C603.507 389.453 604.306 388.099 605.113 386.75C605.819 385.539 606.49 384.306 607.116 383.052C607.551 382.227 607.551 382.227 607.994 381.385C608.229 380.903 608.463 380.421 608.705 379.924C609.94 378.901 609.94 378.901 615.926 378.901C615.926 405.812 615.926 432.724 615.926 460.451C613.95 460.451 611.975 460.451 609.94 460.451C609.693 437.983 609.447 415.516 609.192 392.368C601.453 405.906 601.453 405.906 593.729 419.454C592.853 420.963 591.975 422.471 591.096 423.978C590.646 424.775 590.196 425.573 589.733 426.395C589.072 427.519 589.072 427.519 588.399 428.665C588.024 429.316 587.65 429.966 587.264 430.636C585.999 432.02 585.999 432.02 584.13 432.443C582.258 432.02 582.258 432.02 580.982 430.612C580.602 429.952 580.223 429.293 579.833 428.613C579.395 427.868 578.958 427.123 578.508 426.355C578.048 425.54 577.588 424.724 577.115 423.884C576.633 423.055 576.151 422.226 575.655 421.372C574.366 419.155 573.093 416.928 571.825 414.698C570.503 412.383 569.168 410.077 567.833 407.769C566.317 405.149 564.804 402.527 563.3 399.9C562.854 399.119 562.407 398.339 561.947 397.535C561.552 396.843 561.157 396.151 560.751 395.438C559.939 393.929 559.939 393.929 559.065 393.116C558.818 415.336 558.572 437.557 558.317 460.451C556.342 460.451 554.367 460.451 552.332 460.451C552.332 433.539 552.332 406.628 552.332 378.901Z" fill="black"/>
<path d="M1568.34 378.901C1573.91 378.554 1573.91 378.554 1575.69 380.068C1575.99 380.619 1576.28 381.171 1576.59 381.739C1577.12 382.685 1577.12 382.685 1577.66 383.65C1578.02 384.351 1578.39 385.052 1578.76 385.775C1579.6 387.293 1580.45 388.811 1581.29 390.328C1581.73 391.144 1582.18 391.959 1582.64 392.8C1584.85 396.811 1587.18 400.751 1589.5 404.696C1590.32 406.074 1591.12 407.455 1591.93 408.835C1595.94 415.686 1600.01 422.502 1604.12 429.293C1607.5 434.894 1610.72 440.55 1613.97 446.236C1614.22 424.015 1614.47 401.795 1614.72 378.901C1616.7 378.901 1618.67 378.901 1620.71 378.901C1620.71 405.812 1620.71 432.724 1620.71 460.451C1618.73 460.451 1616.76 460.451 1614.72 460.451C1614.35 459.777 1613.97 459.104 1613.59 458.411C1609.04 450.234 1604.29 442.175 1599.51 434.127C1597.53 430.793 1595.56 427.456 1593.59 424.118C1593.01 423.137 1593.01 423.137 1592.41 422.137C1589.97 418.007 1587.54 413.869 1585.12 409.728C1584.83 409.23 1584.54 408.733 1584.24 408.22C1582.8 405.75 1581.35 403.28 1579.91 400.808C1579.38 399.907 1578.86 399.006 1578.33 398.105C1577.86 397.304 1577.4 396.504 1576.92 395.68C1575.98 393.963 1575.98 393.963 1575.07 393.116C1574.82 415.336 1574.58 437.557 1574.32 460.451C1572.59 460.451 1570.86 460.451 1569.08 460.451C1568.42 441.107 1568.27 421.775 1568.29 402.421C1568.29 401.548 1568.29 401.548 1568.29 400.657C1568.3 393.405 1568.31 386.153 1568.34 378.901Z" fill="black"/>
<path d="M1713.48 402.842C1716.86 405.267 1719.94 407.609 1720.96 411.82C1721.45 411.82 1721.95 411.82 1722.46 411.82C1722.64 411.056 1722.64 411.056 1722.83 410.277C1724.91 406.207 1728.5 403.697 1732.37 401.393C1738.17 399.748 1743.95 399.795 1749.37 402.603C1754.34 405.837 1757.34 409.906 1759.12 415.561C1759.68 418.477 1759.96 421.232 1759.95 424.199C1759.95 425.39 1759.95 425.39 1759.95 426.604C1759.95 427.448 1759.94 428.292 1759.94 429.162C1759.94 430.036 1759.94 430.91 1759.93 431.81C1759.93 434.592 1759.92 437.374 1759.91 440.157C1759.91 442.047 1759.9 443.936 1759.9 445.826C1759.89 450.452 1759.88 455.077 1759.86 459.702C1757.89 459.702 1755.91 459.702 1753.88 459.702C1753.88 458.935 1753.88 458.935 1753.87 458.152C1753.84 452.811 1753.79 447.471 1753.72 442.131C1753.7 440.14 1753.69 438.149 1753.68 436.157C1753.66 433.289 1753.63 430.422 1753.59 427.555C1753.59 426.669 1753.59 425.784 1753.58 424.871C1753.47 418.54 1752.55 414.466 1748.17 409.669C1744.54 407.383 1740.84 406.126 1736.51 406.866C1732.58 408.185 1729.09 410.329 1726.85 413.917C1724.45 418.87 1724.25 423.352 1724.25 428.797C1724.23 429.684 1724.22 430.571 1724.21 431.485C1724.17 434.298 1724.16 437.11 1724.14 439.923C1724.12 441.839 1724.1 443.754 1724.07 445.67C1724.02 450.347 1723.98 455.025 1723.95 459.702C1722.22 459.702 1720.5 459.702 1718.72 459.702C1718.71 459.241 1718.71 458.78 1718.7 458.304C1718.65 453.473 1718.59 448.642 1718.52 443.811C1718.49 442.012 1718.47 440.212 1718.46 438.413C1718.43 435.816 1718.39 433.22 1718.35 430.623C1718.35 429.827 1718.34 429.032 1718.34 428.211C1718.22 422.374 1717.45 417.012 1714.46 411.914C1711.05 408.782 1707.66 407.168 1703 406.91C1699.01 407.101 1696.21 408.358 1693.28 411.072C1689.97 415.226 1688.72 418.814 1688.64 424.098C1688.62 424.907 1688.61 425.716 1688.59 426.549C1688.57 427.851 1688.57 427.851 1688.55 429.18C1688.54 430.072 1688.52 430.965 1688.51 431.884C1688.46 434.735 1688.41 437.586 1688.37 440.437C1688.34 442.37 1688.3 444.303 1688.27 446.236C1688.19 450.974 1688.11 455.712 1688.04 460.451C1686.31 460.451 1684.58 460.451 1682.8 460.451C1682.56 440.946 1682.31 421.441 1682.06 401.346C1684.03 401.346 1686.01 401.346 1688.04 401.346C1688.29 403.321 1688.53 405.296 1688.79 407.331C1689.09 407.033 1689.39 406.735 1689.7 406.428C1696.29 400.288 1705.36 398.298 1713.48 402.842Z" fill="black"/>
<path d="M725.157 378.901C726.885 378.901 728.614 378.901 730.394 378.901C730.641 405.565 730.888 432.23 731.142 459.702C729.167 459.702 727.192 459.702 725.157 459.702C724.91 458.962 724.663 458.221 724.409 457.458C723.876 457.665 723.342 457.873 722.793 458.086C718.838 459.582 715.191 460.878 710.942 461.199C710.047 461.276 709.152 461.353 708.23 461.433C700.666 461.286 693.822 458.232 688.497 452.969C682.31 446.462 679.204 438.281 679.359 429.276C680.13 420.899 683.352 413.359 689.245 407.331C696.741 401.251 704.41 399.785 713.935 400.598C717.979 401.368 721.475 402.497 725.157 404.338C725.157 395.944 725.157 387.55 725.157 378.901ZM690.742 414.813C685.789 421.312 684.792 427.69 685.505 435.761C687.313 443.262 691.621 448.704 698.039 452.799C703.828 455.961 709.937 456.155 716.343 454.646C719.956 453.413 722.869 452.391 725.157 449.228C725.636 446.453 725.612 443.695 725.607 440.884C725.614 440.067 725.62 439.25 725.627 438.408C725.635 436.681 725.636 434.953 725.63 433.225C725.625 430.583 725.66 427.943 725.698 425.3C725.701 423.621 725.702 421.942 725.701 420.263C725.715 419.474 725.728 418.684 725.743 417.871C725.779 413.957 725.779 413.957 724.21 410.501C719.14 406.1 712.701 406.187 706.365 406.352C699.806 406.873 695.162 410.054 690.742 414.813Z" fill="black"/>
<path d="M1916.98 403.59C1917.23 403.097 1917.47 402.603 1917.73 402.094C1919.45 402.094 1921.18 402.094 1922.96 402.094C1922.96 428.759 1922.96 455.423 1922.96 482.895C1921.24 482.895 1919.51 482.895 1917.73 482.895C1917.48 474.007 1917.23 465.119 1916.98 455.962C1915 456.702 1913.03 457.443 1910.99 458.206C1903.45 460.092 1895.46 459.619 1888.55 455.962C1883.5 452.873 1880.15 449.163 1877.33 443.991C1877.02 443.457 1876.71 442.922 1876.39 442.372C1873.14 435.776 1873.2 427.411 1875.02 420.389C1878.11 412.505 1882.81 406.521 1890.39 402.649C1898.8 399.118 1908.78 399.493 1916.98 403.59ZM1883.77 415.318C1879.8 421.043 1878.71 427.426 1879.57 434.265C1880.9 440.422 1883.74 445.144 1888.55 449.228C1895.27 453.45 1901.47 454.644 1909.26 453.156C1912.61 452.342 1915.27 450.941 1917.73 448.48C1917.82 447.325 1917.85 446.167 1917.87 445.009C1917.88 444.269 1917.9 443.53 1917.91 442.769C1917.94 439.381 1917.97 435.993 1917.99 432.606C1918 430.817 1918.02 429.028 1918.05 427.239C1918.09 424.666 1918.11 422.094 1918.12 419.521C1918.14 418.72 1918.15 417.92 1918.17 417.095C1918.25 412.686 1918.25 412.686 1915.96 409.097C1904.37 403.134 1892.12 405.307 1883.77 415.318Z" fill="black"/>
<path d="M1306.48 404.338C1307.5 404.963 1307.5 404.963 1308.54 405.601C1316.14 413.413 1317.7 423.055 1317.7 433.517C1304.12 433.517 1290.54 433.517 1276.55 433.517C1279.83 445.512 1279.83 445.512 1288.06 453.314C1293.38 455.802 1297.98 455.573 1303.46 453.711C1304.89 453.174 1306.31 452.615 1307.71 452.028C1309.47 451.473 1309.47 451.473 1311.72 452.221C1312.6 454.512 1312.6 454.512 1313.21 456.71C1311.65 457.32 1310.1 457.927 1308.54 458.533C1307.67 458.872 1306.8 459.21 1305.91 459.559C1299.97 461.746 1293.16 462.472 1287.17 460.03C1280.15 456.352 1275.12 450.441 1272.2 443.103C1269.35 433.938 1269.84 423.992 1273.64 415.131C1276.92 408.898 1281.5 403.126 1288.44 400.89C1295.32 399.615 1300.61 400.615 1306.48 404.338ZM1281.95 412.606C1278.55 417.306 1276.55 422.461 1276.55 428.28C1288.16 428.28 1299.76 428.28 1311.72 428.28C1310.85 419.573 1309.46 414.663 1302.71 409.108C1295.37 403.97 1287.6 406.117 1281.95 412.606Z" fill="black"/>
<path d="M660.067 404.338C666.566 409.196 669.844 416.797 671.12 424.641C671.353 427.591 671.29 430.558 671.29 433.517C657.71 433.517 644.131 433.517 630.141 433.517C632.265 442.016 634.177 448.082 641.363 452.969C645.863 455.463 649.859 455.581 654.83 454.465C657.025 453.725 659.165 452.92 661.303 452.028C663.06 451.473 663.06 451.473 665.304 452.221C666.193 454.512 666.193 454.512 666.801 456.71C665.243 457.32 663.684 457.927 662.125 458.533C661.257 458.872 660.389 459.21 659.494 459.559C653.558 461.746 646.746 462.472 640.755 460.03C633.096 456.018 628.181 449.692 625.371 441.606C622.62 431.728 623.839 421.893 628.364 412.755C631.446 407.476 635.947 402.714 641.945 400.902C648.817 399.645 654.261 400.38 660.067 404.338ZM635.538 412.633C632.057 417.508 630.141 422.282 630.141 428.28C641.745 428.28 653.349 428.28 665.304 428.28C664.503 421.071 662.98 414.814 657.355 409.856C653.59 406.94 650.515 406.151 645.764 406.259C641.364 406.92 638.38 409.313 635.538 412.633Z" fill="black"/>
<path d="M1393.17 401.86C1401 405.936 1404.86 412.534 1407.48 420.798C1408.55 425.17 1408.23 428.776 1408.23 433.517C1394.65 433.517 1381.07 433.517 1367.08 433.517C1370.6 445.749 1370.6 445.749 1379.66 453.72C1385.35 456.277 1390.57 455.012 1396.21 452.876C1396.88 452.596 1397.55 452.316 1398.24 452.028C1400 451.473 1400 451.473 1402.24 452.221C1403.13 454.512 1403.13 454.512 1403.74 456.71C1395.89 460.451 1387.42 463.298 1378.77 460.264C1370.81 456.704 1365.72 450.536 1362.59 442.495C1359.51 432.188 1360.81 421.778 1365.86 412.367C1371.54 402.847 1382.24 397.249 1393.17 401.86ZM1373.07 412.568C1369.63 417.13 1367.08 422.482 1367.08 428.28C1378.93 428.28 1390.78 428.28 1402.99 428.28C1401.1 418.807 1398.98 413.04 1391.02 407.331C1383.84 404.939 1377.95 406.932 1373.07 412.568Z" fill="black"/>
<path d="M2017.23 401.925C2024.52 406.386 2028.17 411.982 2030.93 419.863C2031.66 424.359 2031.45 428.962 2031.45 433.517C2018.12 433.517 2004.78 433.517 1991.05 433.517C1993.78 444.98 1993.78 444.98 2001.69 453.045C2006.23 455.341 2010.12 455.563 2014.99 454.465C2017.17 453.743 2019.3 452.955 2021.43 452.101C2023.22 451.473 2023.22 451.473 2025.46 451.473C2026.41 453.032 2026.96 454.095 2026.94 455.938C2025.97 457.957 2024.7 458.33 2022.65 459.052C2022.16 459.205 2021.67 459.358 2021.16 459.515C2020.66 459.675 2020.15 459.836 2019.63 460C2012.72 462.04 2006.06 462.233 1999.43 459.138C1992.81 455.398 1988.47 449.178 1985.86 442.074C1983.4 432.422 1984.48 421.711 1989.04 412.904C1995.05 403.13 2005.87 396.848 2017.23 401.925ZM1996.47 412.428C1992.63 417.869 1991.75 421.212 1991.05 428.28C2002.65 428.28 2014.25 428.28 2026.21 428.28C2025.23 420.476 2022.83 413.902 2016.82 408.538C2009.55 403.585 2002 406.773 1996.47 412.428Z" fill="black"/>
<path d="M1478.37 403.193C1484.7 407.507 1488.47 413.485 1490.39 420.918C1491.17 425.242 1491.27 429.056 1491.27 433.517C1477.7 433.517 1464.12 433.517 1450.13 433.517C1452.29 442.186 1454.54 448.791 1462.1 453.717C1467.96 456.262 1473.48 455.073 1479.26 452.876C1479.93 452.596 1480.6 452.316 1481.29 452.028C1483.04 451.473 1483.04 451.473 1485.29 452.221C1486.18 454.512 1486.18 454.512 1486.79 456.71C1485.23 457.32 1483.67 457.927 1482.11 458.533C1481.24 458.872 1480.37 459.211 1479.48 459.559C1473.54 461.746 1466.73 462.472 1460.74 460.03C1453.1 456.028 1448.18 449.711 1445.36 441.653C1442.44 431.122 1443.94 421.045 1449.19 411.54C1452.29 406.748 1456.35 402.66 1461.9 400.928C1467.91 399.753 1473.02 400.113 1478.37 403.193ZM1455.52 412.633C1452.04 417.508 1450.13 422.282 1450.13 428.28C1461.73 428.28 1473.33 428.28 1485.29 428.28C1484.49 421.071 1482.96 414.814 1477.34 409.856C1473.58 406.94 1470.5 406.151 1465.75 406.259C1461.35 406.92 1458.36 409.313 1455.52 412.633Z" fill="black"/>
<path d="M1799.57 401.98C1806.87 406.334 1810.8 412.715 1813.26 420.751C1813.91 424.96 1813.73 429.259 1813.73 433.517C1800.4 433.764 1787.07 434.011 1773.33 434.265C1776.02 445.051 1776.02 445.051 1783.29 452.595C1787.43 455.075 1790.92 455.724 1795.65 454.798C1798.43 454.076 1801.09 453.251 1803.74 452.142C1805.5 451.473 1805.5 451.473 1807.75 451.473C1808.84 453.453 1809.24 454.386 1809.24 456.71C1807.83 457.322 1806.41 457.929 1804.99 458.533C1804.2 458.872 1803.41 459.21 1802.59 459.559C1796.57 461.865 1789.73 462.24 1783.62 460.03C1775.85 456.457 1771.29 450.238 1768.36 442.346C1767.17 438.643 1767 435.185 1767.07 431.319C1767.07 430.66 1767.08 430.002 1767.09 429.323C1767.31 420.156 1770.29 412.745 1776.56 405.928C1782.77 400.189 1791.69 398.428 1799.57 401.98ZM1777.5 413.857C1774.36 418.404 1773.36 422.841 1772.58 428.28C1784.43 428.28 1796.29 428.28 1808.5 428.28C1806.88 419.41 1804.9 413.725 1798.02 408.079C1790.38 403.33 1782.55 407.768 1777.5 413.857Z" fill="black"/>
<path d="M1064.11 385.24C1066.03 386.739 1067.67 388.328 1069.31 390.123C1068.32 391.358 1067.34 392.592 1066.32 393.864C1063.88 392.727 1061.76 391.314 1059.54 389.796C1052.59 385.348 1045.67 383.945 1037.56 385.401C1028.85 387.544 1022.67 393.137 1018.12 400.639C1012.87 410.451 1011.95 420.316 1014.66 431.056C1016.44 436.635 1018.76 441.372 1022.93 445.487C1022.93 445.981 1022.93 446.475 1022.93 446.984C1023.58 447.298 1023.58 447.298 1024.25 447.618C1025.82 448.429 1027.25 449.327 1028.72 450.304C1035.96 454.778 1043 455.76 1051.43 453.974C1055.87 452.524 1059.14 450.335 1062.6 447.203C1064.07 446.236 1064.07 446.236 1065.67 446.367C1067.07 446.984 1067.07 446.984 1068.56 448.48C1068.42 450.491 1067.96 451.323 1066.56 452.779C1057.73 459.583 1049.72 461.865 1038.64 461.199C1028.51 459.417 1020.17 453.034 1014.09 444.926C1007.08 434.364 1005.5 421.664 1007.5 409.301C1010.01 398.525 1016.34 389.699 1025.4 383.577C1037.76 376.149 1052.39 376.966 1064.11 385.24Z" fill="black"/>
<path d="M907.025 403.78C913.95 408.649 918.74 415.053 920.886 423.311C922.228 432.473 921.584 441.637 916.172 449.415C910.862 455.804 905.244 460.601 896.773 461.479C888.324 461.751 882.143 459.945 875.617 454.55C869.791 448.703 866.353 441.091 866.171 432.853C866.254 422.87 868.133 415.48 875.348 408.146C884.007 400.118 896.451 397.424 907.025 403.78ZM877.434 413.994C872.858 420.236 871.075 427.381 871.797 435.013C873.255 442.492 876.868 447.941 882.94 452.548C888.302 455.84 893.434 456.506 899.479 455.213C905.735 453.143 909.909 448.842 912.852 443.056C915.777 436.82 916.279 429.717 914.626 422.993C911.936 416.082 907.965 411.226 901.63 407.425C892.715 404.099 883.677 407.265 877.434 413.994Z" fill="black"/>
<path d="M792.492 404.339C798.912 410.718 799.564 417.909 799.608 426.55C799.621 427.521 799.635 428.492 799.649 429.493C799.684 432.056 799.706 434.619 799.726 437.182C799.748 439.806 799.783 442.429 799.817 445.052C799.881 450.185 799.932 455.318 799.973 460.451C797.998 460.451 796.023 460.451 793.988 460.451C793.741 459.463 793.494 458.475 793.24 457.458C792.834 457.665 792.428 457.873 792.009 458.086C791.207 458.493 791.207 458.493 790.387 458.908C789.593 459.311 789.593 459.311 788.783 459.723C783.976 462.011 778.239 462.071 773.165 460.573C767.879 458.153 764.091 454.523 761.49 449.322C760.288 442.647 760.926 437.713 764.81 432.02C768.503 427.667 773.283 425.575 778.938 425.109C781.231 425.067 783.512 425.09 785.805 425.147C786.595 425.157 787.386 425.167 788.2 425.177C790.13 425.204 792.059 425.24 793.988 425.287C792.729 416.323 792.729 416.323 788.003 408.827C785.256 406.928 782.378 407.135 779.165 407.191C778.651 407.191 778.138 407.192 777.609 407.192C774.275 407.221 771.093 407.542 767.802 408.079C767.555 406.104 767.309 404.129 767.054 402.094C775.838 400.123 784.842 398.615 792.492 404.339ZM770.047 435.013C767.477 438.462 766.552 441.072 766.765 445.382C767.393 448.862 769.422 450.909 771.964 453.203C775.761 455.832 779.805 455.565 784.262 455.214C788.224 453.819 791.262 451.421 793.339 447.717C794.303 444.406 794.144 441.2 794.081 437.772C794.075 437.075 794.068 436.378 794.061 435.66C794.043 433.948 794.019 432.236 793.988 430.524C791.868 430.483 789.749 430.454 787.629 430.431C786.74 430.412 786.74 430.412 785.834 430.393C779.936 430.344 774.715 431.087 770.047 435.013Z" fill="black"/>
<path d="M959.966 403.187C964.904 406.718 967.381 411.286 969.058 417.057C969.506 420.378 969.579 423.669 969.619 427.017C969.641 427.947 969.662 428.876 969.685 429.834C969.895 440.037 969.88 450.246 969.806 460.451C967.831 460.451 965.856 460.451 963.821 460.451C963.816 459.948 963.812 459.446 963.807 458.929C963.759 453.685 963.696 448.442 963.624 443.199C963.6 441.244 963.579 439.289 963.562 437.334C963.536 434.518 963.497 431.703 963.455 428.888C963.451 428.018 963.446 427.149 963.441 426.254C963.337 420.452 962.926 415.801 959.051 411.212C955.07 407.895 951.837 406.439 946.613 406.583C942.241 407.917 938.317 410.018 936.037 414.083C933.775 419.338 933.498 423.945 933.602 429.618C933.606 430.504 933.61 431.39 933.615 432.303C933.631 435.109 933.669 437.913 933.707 440.718C933.722 442.63 933.736 444.542 933.748 446.455C933.781 451.12 933.831 455.785 933.894 460.451C931.919 460.451 929.944 460.451 927.909 460.451C927.662 441.193 927.415 421.935 927.161 402.094C929.136 402.094 931.111 402.094 933.146 402.094C933.393 403.822 933.64 405.55 933.894 407.331C934.212 407.033 934.529 406.735 934.856 406.428C942.178 399.814 951.064 398.022 959.966 403.187Z" fill="black"/>
<path d="M1077.54 401.346C1079.27 401.346 1081 401.346 1082.78 401.346C1082.78 401.8 1082.79 402.253 1082.8 402.721C1082.86 407.467 1082.94 412.213 1083.02 416.958C1083.04 418.727 1083.07 420.495 1083.09 422.263C1083.13 424.814 1083.17 427.363 1083.22 429.913C1083.23 430.697 1083.23 431.48 1083.24 432.288C1083.38 439.34 1083.79 445.884 1089.13 451.055C1092.74 454.202 1095.61 454.784 1100.26 454.717C1104.19 454.215 1106.97 452.317 1109.39 449.222C1111.71 445.636 1112.79 442.767 1112.86 438.463C1112.87 437.639 1112.89 436.815 1112.9 435.967C1112.92 435.078 1112.93 434.19 1112.94 433.274C1112.96 432.364 1112.97 431.454 1112.99 430.516C1113.04 427.604 1113.08 424.692 1113.13 421.78C1113.16 419.808 1113.19 417.836 1113.22 415.863C1113.3 411.024 1113.38 406.185 1113.45 401.346C1115.18 401.346 1116.91 401.346 1118.69 401.346C1118.94 420.85 1119.18 440.355 1119.44 460.451C1117.46 460.451 1115.49 460.451 1113.45 460.451C1113.08 457.488 1113.08 457.488 1112.7 454.465C1112.4 454.763 1112.09 455.061 1111.77 455.368C1106.78 459.95 1102.18 461.73 1095.35 461.503C1089.54 460.661 1085.2 457.572 1081.58 453.054C1078.33 448.156 1077.44 442.658 1077.46 436.849C1077.46 436.055 1077.46 435.262 1077.46 434.444C1077.46 433.6 1077.46 432.756 1077.47 431.886C1077.47 430.575 1077.47 430.575 1077.47 429.238C1077.48 426.456 1077.48 423.674 1077.49 420.892C1077.5 419.002 1077.5 417.112 1077.5 415.222C1077.51 410.597 1077.53 405.971 1077.54 401.346Z" fill="black"/>
<path d="M1934.93 401.346C1936.66 401.346 1938.39 401.346 1940.17 401.346C1940.18 401.818 1940.18 402.291 1940.18 402.777C1940.23 407.718 1940.3 412.658 1940.37 417.598C1940.39 419.439 1940.41 421.28 1940.43 423.121C1940.46 425.775 1940.5 428.428 1940.54 431.082C1940.54 431.899 1940.55 432.715 1940.55 433.556C1940.68 440.166 1941.72 446.317 1946.16 451.473C1949.73 454.135 1953.36 455.006 1957.79 454.796C1961.62 454.107 1964.35 452.282 1966.78 449.275C1969.45 445.258 1970.17 441.739 1970.25 436.934C1970.27 436.14 1970.28 435.347 1970.3 434.529C1970.31 433.681 1970.32 432.833 1970.33 431.959C1970.35 431.084 1970.37 430.209 1970.38 429.308C1970.43 426.518 1970.47 423.728 1970.52 420.938C1970.55 419.045 1970.58 417.152 1970.62 415.258C1970.7 410.621 1970.77 405.983 1970.85 401.346C1972.57 401.346 1974.3 401.346 1976.08 401.346C1976.33 420.85 1976.58 440.355 1976.83 460.451C1974.86 460.451 1972.88 460.451 1970.85 460.451C1970.48 457.488 1970.48 457.488 1970.1 454.465C1969.66 454.826 1969.23 455.187 1968.78 455.558C1963.53 459.806 1959.63 461.634 1952.8 461.476C1946.92 460.717 1942.61 457.551 1938.98 453.007C1935.87 448.461 1934.84 443.748 1934.85 438.293C1934.85 437.469 1934.85 436.646 1934.85 435.797C1934.85 434.916 1934.86 434.036 1934.86 433.128C1934.86 432.22 1934.86 431.312 1934.86 430.376C1934.87 427.48 1934.88 424.583 1934.89 421.686C1934.89 419.721 1934.89 417.756 1934.9 415.79C1934.91 410.975 1934.92 406.161 1934.93 401.346Z" fill="black"/>
<path d="M1631.18 401.346C1632.91 401.346 1634.64 401.346 1636.42 401.346C1636.42 401.811 1636.43 402.275 1636.44 402.754C1636.5 407.609 1636.58 412.464 1636.66 417.319C1636.68 419.129 1636.71 420.939 1636.73 422.748C1636.77 425.356 1636.81 427.963 1636.86 430.571C1636.86 431.375 1636.87 432.178 1636.88 433.006C1637.02 439.829 1637.77 446.139 1642.4 451.473C1645.89 454.234 1649.64 455.004 1654.03 454.796C1657.87 454.106 1660.61 452.284 1663.03 449.249C1665.55 445.393 1666.42 442.309 1666.5 437.698C1666.51 436.89 1666.53 436.081 1666.54 435.248C1666.56 433.945 1666.56 433.945 1666.58 432.617C1666.6 431.724 1666.61 430.832 1666.63 429.912C1666.68 427.061 1666.72 424.21 1666.77 421.359C1666.8 419.426 1666.83 417.494 1666.86 415.561C1666.94 410.823 1667.02 406.084 1667.09 401.346C1668.82 401.346 1670.55 401.346 1672.33 401.346C1672.58 420.85 1672.82 440.355 1673.08 460.451C1671.1 460.451 1669.13 460.451 1667.09 460.451C1666.72 457.488 1666.72 457.488 1666.34 454.465C1665.91 454.826 1665.48 455.187 1665.03 455.558C1659.78 459.806 1655.87 461.634 1649.04 461.476C1643.16 460.717 1638.86 457.551 1635.22 453.007C1632.11 448.461 1631.08 443.748 1631.1 438.293C1631.1 437.469 1631.1 436.646 1631.1 435.797C1631.1 434.916 1631.1 434.036 1631.11 433.128C1631.11 432.22 1631.11 431.312 1631.11 430.376C1631.12 427.48 1631.12 424.583 1631.13 421.686C1631.14 419.721 1631.14 417.756 1631.14 415.79C1631.15 410.975 1631.17 406.161 1631.18 401.346Z" fill="black"/>
<path d="M1188.27 401.346C1190 401.346 1191.73 401.346 1193.51 401.346C1193.51 401.811 1193.52 402.275 1193.52 402.754C1193.59 407.609 1193.66 412.464 1193.74 417.319C1193.77 419.129 1193.8 420.939 1193.82 422.748C1193.86 425.356 1193.9 427.963 1193.94 430.571C1193.95 431.375 1193.96 432.178 1193.97 433.006C1194.1 439.829 1194.85 446.139 1199.49 451.473C1202.97 454.234 1206.73 455.004 1211.12 454.796C1214.96 454.106 1217.7 452.284 1220.12 449.249C1222.64 445.393 1223.51 442.309 1223.59 437.698C1223.6 436.89 1223.62 436.081 1223.63 435.248C1223.65 433.945 1223.65 433.945 1223.67 432.617C1223.69 431.724 1223.7 430.832 1223.72 429.912C1223.77 427.061 1223.81 424.21 1223.85 421.359C1223.89 419.426 1223.92 417.494 1223.95 415.561C1224.03 410.823 1224.11 406.084 1224.18 401.346C1225.91 401.346 1227.64 401.346 1229.42 401.346C1229.67 420.85 1229.91 440.355 1230.17 460.451C1228.19 460.451 1226.22 460.451 1224.18 460.451C1223.81 457.488 1223.81 457.488 1223.43 454.465C1223 454.826 1222.56 455.187 1222.12 455.558C1216.86 459.806 1212.96 461.634 1206.13 461.476C1200.25 460.717 1195.95 457.551 1192.31 453.007C1189.2 448.461 1188.17 443.748 1188.18 438.293C1188.18 437.469 1188.18 436.646 1188.18 435.797C1188.19 434.916 1188.19 434.036 1188.2 433.128C1188.2 432.22 1188.2 431.312 1188.2 430.376C1188.2 427.48 1188.21 424.583 1188.22 421.686C1188.23 419.721 1188.23 417.756 1188.23 415.79C1188.24 410.975 1188.25 406.161 1188.27 401.346Z" fill="black"/>
<path d="M1157.59 378.901C1159.57 378.901 1161.54 378.901 1163.58 378.901C1163.58 386.555 1163.58 394.208 1163.58 402.094C1168.76 402.094 1173.95 402.094 1179.29 402.094C1179.29 404.069 1179.29 406.044 1179.29 408.079C1174.11 408.079 1168.92 408.079 1163.58 408.079C1163.58 425.362 1163.58 442.644 1163.58 460.451C1161.85 460.451 1160.12 460.451 1158.34 460.451C1157.46 454.877 1157.5 449.369 1157.52 443.734C1157.52 442.702 1157.52 441.671 1157.52 440.64C1157.53 437.944 1157.53 435.248 1157.54 432.552C1157.55 429.793 1157.55 427.034 1157.56 424.276C1157.57 418.877 1157.58 413.478 1157.59 408.079C1154.88 408.079 1152.16 408.079 1149.36 408.079C1149.36 406.104 1149.36 404.129 1149.36 402.094C1152.08 402.094 1154.8 402.094 1157.59 402.094C1157.59 394.44 1157.59 386.787 1157.59 378.901Z" fill="black"/>
<path d="M817.929 378.901C819.904 378.901 821.88 378.901 823.915 378.901C823.915 386.555 823.915 394.208 823.915 402.094C829.099 402.094 834.284 402.094 839.626 402.094C839.626 404.069 839.626 406.044 839.626 408.079C834.441 408.079 829.256 408.079 823.915 408.079C823.915 425.362 823.915 442.644 823.915 460.451C822.186 460.451 820.458 460.451 818.677 460.451C818.677 443.168 818.677 425.886 818.677 408.079C815.715 408.079 812.752 408.079 809.699 408.079C809.699 406.104 809.699 404.129 809.699 402.094C812.415 402.094 815.131 402.094 817.929 402.094C817.929 394.44 817.929 386.787 817.929 378.901Z" fill="black"/>
<path d="M1508.48 378.901C1510.21 378.901 1511.94 378.901 1513.72 378.901C1513.72 386.555 1513.72 394.208 1513.72 402.094C1518.9 402.094 1524.09 402.094 1529.43 402.094C1529.43 404.069 1529.43 406.044 1529.43 408.079C1524.25 408.079 1519.06 408.079 1513.72 408.079C1513.72 425.362 1513.72 442.644 1513.72 460.451C1511.99 460.451 1510.26 460.451 1508.48 460.451C1508.48 443.168 1508.48 425.886 1508.48 408.079C1505.52 408.079 1502.56 408.079 1499.5 408.079C1499.5 406.104 1499.5 404.129 1499.5 402.094C1502.47 402.094 1505.43 402.094 1508.48 402.094C1508.48 394.44 1508.48 386.787 1508.48 378.901Z" fill="black"/>
<path d="M1264.58 400.598C1264.33 402.573 1264.09 404.548 1263.83 406.583C1262.97 406.654 1262.97 406.654 1262.08 406.726C1257.05 407.318 1253.83 408.268 1250.08 411.712C1246.17 416.889 1246.28 421.951 1246.24 428.23C1246.23 429.153 1246.22 430.075 1246.2 431.026C1246.16 433.96 1246.14 436.895 1246.11 439.829C1246.09 441.824 1246.06 443.819 1246.03 445.813C1245.97 450.692 1245.92 455.571 1245.88 460.451C1244.15 460.451 1242.42 460.451 1240.64 460.451C1240.01 453.055 1239.79 445.738 1239.82 438.316C1239.82 437.24 1239.82 436.165 1239.82 435.09C1239.83 432.298 1239.83 429.506 1239.84 426.714C1239.85 423.85 1239.85 420.985 1239.86 418.121C1239.86 412.529 1239.88 406.938 1239.89 401.346C1241.87 401.346 1243.84 401.346 1245.88 401.346C1246.12 403.321 1246.37 405.296 1246.63 407.331C1247.01 406.97 1247.39 406.61 1247.78 406.238C1253.27 401.2 1257.25 400.337 1264.58 400.598Z" fill="black"/>
<path d="M1846.65 400.598C1846.16 402.573 1845.66 404.548 1845.16 406.583C1843.67 406.652 1843.67 406.652 1842.16 406.723C1837.19 407.287 1833.82 409.392 1830.66 413.223C1827.76 418.802 1827.74 423.796 1827.8 429.983C1827.8 430.856 1827.81 431.729 1827.81 432.628C1827.82 435.403 1827.83 438.177 1827.85 440.952C1827.86 442.838 1827.87 444.725 1827.87 446.611C1827.89 451.224 1827.92 455.837 1827.95 460.451C1825.97 460.451 1824 460.451 1821.96 460.451C1821.72 440.946 1821.47 421.441 1821.21 401.346C1823.19 401.346 1825.16 401.346 1827.2 401.346C1827.45 403.321 1827.69 405.296 1827.95 407.331C1828.26 407.033 1828.56 406.735 1828.88 406.428C1834.44 401.33 1839.19 400.185 1846.65 400.598Z" fill="black"/>
<path d="M1346.88 378.901C1348.61 378.901 1350.34 378.901 1352.12 378.901C1352.12 405.812 1352.12 432.724 1352.12 460.451C1350.39 460.451 1348.66 460.451 1346.88 460.451C1346.88 433.539 1346.88 406.628 1346.88 378.901Z" fill="black"/>
<path d="M1328.18 378.901C1329.9 378.901 1331.63 378.901 1333.41 378.901C1333.41 405.812 1333.41 432.724 1333.41 460.451C1331.68 460.451 1329.96 460.451 1328.18 460.451C1328.18 433.539 1328.18 406.628 1328.18 378.901Z" fill="black"/>
<path d="M1132.16 378.901C1133.89 378.901 1135.61 378.901 1137.39 378.901C1137.39 405.812 1137.39 432.724 1137.39 460.451C1135.67 460.451 1133.94 460.451 1132.16 460.451C1132.16 433.539 1132.16 406.628 1132.16 378.901Z" fill="black"/>
<path d="M1856.38 401.346C1858.35 401.346 1860.33 401.346 1862.36 401.346C1862.36 420.85 1862.36 440.355 1862.36 460.451C1860.63 460.451 1858.91 460.451 1857.13 460.451C1856.44 447.226 1856.28 434.038 1856.33 420.798C1856.33 418.897 1856.34 416.997 1856.34 415.096C1856.35 410.513 1856.36 405.929 1856.38 401.346Z" fill="black"/>
<path d="M743.113 401.346C745.088 401.346 747.063 401.346 749.098 401.346C749.098 420.85 749.098 440.355 749.098 460.451C747.37 460.451 745.642 460.451 743.861 460.451C743.614 440.946 743.367 421.441 743.113 401.346Z" fill="black"/>
<path d="M850.848 401.346C852.577 401.346 854.305 401.346 856.085 401.346C856.085 420.85 856.085 440.355 856.085 460.451C854.357 460.451 852.629 460.451 850.848 460.451C850.848 440.946 850.848 421.441 850.848 401.346Z" fill="black"/>
<path d="M1799.89 384.372C1801.27 384.503 1802.64 384.661 1804.01 384.886C1801.72 387.99 1799.22 390.269 1796.2 392.602C1795.78 392.942 1795.36 393.282 1794.93 393.632C1792.95 395.162 1791.62 396.075 1789.11 396.328C1788.59 396.256 1788.08 396.183 1787.55 396.109C1793.22 384.317 1793.22 384.317 1799.89 384.372Z" fill="black"/>
<path d="M657.074 384.419C658.325 384.538 659.576 384.681 660.815 384.886C660.017 387.282 659.644 387.662 657.729 389.124C657.029 389.665 657.029 389.665 656.315 390.217C655.825 390.587 655.335 390.958 654.83 391.339C653.863 392.081 652.897 392.824 651.931 393.566C650.774 394.454 650.774 394.454 649.593 395.361C649.346 395.607 649.099 395.854 648.845 396.109C647.598 396.139 646.35 396.141 645.104 396.109C647.217 390.275 650.267 384.375 657.074 384.419Z" fill="black"/>
<path d="M747.789 381.005C748.468 381.298 749.147 381.592 749.847 381.894C749.987 384.045 749.987 384.045 749.847 386.383C747.602 387.879 747.602 387.879 745.217 387.598C744.176 387.367 744.176 387.367 743.113 387.131C742.866 385.649 742.619 384.168 742.365 382.642C744.403 380.604 744.898 380.283 747.789 381.005Z" fill="black"/>
<path d="M1858.62 380.397C1860.41 380.897 1861.78 381.311 1863.11 382.642C1863.3 384.465 1863.3 384.465 1863.11 386.383C1860.87 387.879 1860.87 387.879 1858.48 387.598C1857.44 387.367 1857.44 387.367 1856.38 387.131C1856.13 385.649 1855.88 384.168 1855.63 382.642C1856.89 381.426 1856.89 381.426 1858.62 380.397Z" fill="black"/>
<path d="M855.104 380.865C856.834 381.894 856.834 381.894 857.582 383.296C857.582 384.886 857.582 384.886 856.74 386.57C855.337 387.879 855.337 387.879 853.42 388.159C851.597 387.879 851.597 387.879 850.1 386.383C850.007 384.045 850.007 384.045 850.1 381.894C852.048 380.595 852.775 380.323 855.104 380.865Z" fill="black"/>
</svg>
